<svg xmlns="http://www.w3.org/2000/svg" viewBox="0 0 601.01 459.06"><defs><style>.cls-1{fill:#ccb59d;}.cls-2{fill:#c5a998;}.cls-3{fill:#ddd0be;}.cls-4{fill:#e3dbcc;}.cls-5{fill:#ae3331;}.cls-6{fill:#e53e31;}.cls-7{fill:#f95048;}.cls-8{fill:#336b7c;}.cls-9{fill:#54c2d2;}.cls-10{fill:#75cfd8;}</style></defs><title>Asset 1</title><g id="Layer_2" data-name="Layer 2"><g id="Layer_2-2" data-name="Layer 2"><path class="cls-1" d="M237.16,144.11s-2.95,17.43,11.75,21.58,207.31,50.38,207.31,50.38,37.94-41-42.41-61.17S237.16,144.11,237.16,144.11Z"/><path class="cls-1" d="M229.5,338.51c-2.55,39.54-33.16,57.39-31.89,43.37s7-42.1-6.19-62.16c-8.93-13.58-50.6-62.65-91.82-110.35C54.25,156.87,9.45,106.05,9.45,106.05l110-40.33s32.87,68.1,62.68,137C207.52,261.24,230.67,320.34,229.5,338.51Z"/><path class="cls-2" d="M182.17,202.68c-26,6.48-54.79,7.91-82.57,6.69C54.25,156.87,9.45,106.05,9.45,106.05l110-40.33S152.36,133.82,182.17,202.68Z"/><path class="cls-1" d="M428.23,201.93s124.61,164.43,140.5,192.13c11.19,19.5,6.33,46.76,5.25,60.39s24.84-3.71,27-42.13S497.83,89.64,497.83,89.64Z"/><path class="cls-1" d="M.37,85s-2.69,26.46,29.2,30.85c23.7,3.27,123.4,27.26,127.47,28a22.78,22.78,0,0,0,22.72-10.53c8.29-12.6,33.72-30.12,63.13-11.47s.32-59.95-71.1-54S.37,85,.37,85Z"/><path class="cls-3" d="M497.83,89.64l-48.89,104a20.27,20.27,0,0,1-23.23,11.07L359,188.3,252.47,162a20.42,20.42,0,0,1-15.28-22.27c.76-6.55.18-13.78-3.94-19.43-3.15-4.33-8.37-7.72-16.67-9.17-19.29-3.38-34,10.71-42,21.15a20.23,20.23,0,0,1-20.47,7.36l-55.76-12.5-40.4-9-42.09-9.43a20.3,20.3,0,0,1-13-30.26L50,0,174.89,25l48.72,9.75,93.58,18.73L485.87,87.25h0Z"/><path class="cls-4" d="M174.89,25,58,118.12l-42.09-9.43a20.3,20.3,0,0,1-13-30.26L50,0Z"/><path class="cls-4" d="M485.87,87.25,359,188.3,252.47,162a20.42,20.42,0,0,1-15.28-22.27c.76-6.55.18-13.78-3.94-19.43l83.94-66.85Z"/><path class="cls-5" d="M445.54,128.17,431.33,158c-5.63,11.82-19.24,18.24-32.56,15.36L295.43,151a29.69,29.69,0,0,1-8.5-3.24,29.15,29.15,0,0,1-4.05-2.81c-9.33-7.76-12.84-20.9-7-32.46L290.35,84c5.77-11.37,19-17.51,31.94-14.87l103.1,21a28.84,28.84,0,0,1,14.94,8c.23.23.43.45.65.68A26.24,26.24,0,0,1,445.54,128.17Z"/><path class="cls-6" d="M445.54,128.17l-1.77,3.73L431.34,158c-5.64,11.82-19.26,18.24-32.57,15.36l-.68-.15-69.4-15h0l-18.08-3.92L295.43,151a29.81,29.81,0,0,1-8.5-3.24,25.06,25.06,0,0,1-2-1.53,26.75,26.75,0,0,1-7.17-18.43,26.22,26.22,0,0,1,2.87-11.47l14.45-28.52C300.82,76.45,314,70.31,327,73l9.32,1.91L387,85.21,405.29,89l24.8,5a29.26,29.26,0,0,1,10.24,4.19c.23.23.43.45.65.68A26.23,26.23,0,0,1,445.54,128.17Z"/><path class="cls-7" d="M387,85.21,310.6,154.28,295.43,151a29.81,29.81,0,0,1-8.5-3.24,25.06,25.06,0,0,1-2-1.53,26.75,26.75,0,0,1-7.17-18.43l58.58-52.95Z"/><path class="cls-7" d="M445.54,128.17l-1.77,3.73-45.68,41.28-69.4-15L405.29,89l24.8,5a29.26,29.26,0,0,1,10.24,4.19c.23.23.43.45.65.68A26.23,26.23,0,0,1,445.54,128.17Z"/><path class="cls-8" d="M184.54,71.24,168.35,100c-6.24,11.1-19.83,16.86-33,14L53.66,96.25a29.53,29.53,0,0,1-17.29-10.7,25.59,25.59,0,0,1-1.89-29l15.9-26.95C56.63,19,69.65,13.46,82.41,16l82,15.94a29.13,29.13,0,0,1,20.35,14.5A25.37,25.37,0,0,1,184.54,71.24Z"/><path class="cls-9" d="M187.79,60.85a25.55,25.55,0,0,1-3.25,10.39L168.35,100c-6.24,11.1-19.82,16.86-33,14l-5.15-1.12-58.9-12.8h0l-13.92-3-3.72-.81a29.5,29.5,0,0,1-17.28-10.7,25.33,25.33,0,0,1,.43-25.4l15.89-27C59,22.6,72,17.06,84.74,19.53l4.64.91,43.42,8.44L147,31.65l19.69,3.83a29.58,29.58,0,0,1,18,10.91A25.57,25.57,0,0,1,187.79,60.85Z"/><path class="cls-10" d="M132.8,28.88,57.38,97.06l-3.72-.81a29.5,29.5,0,0,1-17.28-10.7,25.62,25.62,0,0,1-3.12-14.38L89.38,20.44Z"/><path class="cls-10" d="M187.79,60.85,130.21,112.9l-58.9-12.8L147,31.65l19.69,3.83a29.58,29.58,0,0,1,18,10.91A25.57,25.57,0,0,1,187.79,60.85Z"/></g></g></svg>