<svg xmlns="http://www.w3.org/2000/svg" viewBox="0 0 498.11 854.54"><defs><style>.cls-1{isolation:isolate;}.cls-2{fill:#ffecd9;}.cls-3{fill:#f5c575;}.cls-4{fill:#f5d482;}.cls-5{fill:#f5edc8;}.cls-6{fill:#f5dbb1;}.cls-7{fill:#f5b56b;}.cls-8{fill:#e53e31;}.cls-9{fill:#e6e6e6;mix-blend-mode:multiply;}.cls-10{fill:#f3ddcf;}.cls-11{fill:#ffe2c4;}</style></defs><title>Asset 2</title><g class="cls-1"><g id="Layer_2" data-name="Layer 2"><g id="Layer_2-2" data-name="Layer 2"><path class="cls-2" d="M412.9,261.37q6.09,35.1,12.2,70.18Q453.57,495.1,482,658.65q6.11,35,12.19,70c1.07,6.21,2.16,12.41,3.23,18.62a46.25,46.25,0,0,1-24.38,49A524.59,524.59,0,0,1,257.3,854.49a45.55,45.55,0,0,1-21.79-4.33,46.22,46.22,0,0,1-23.32-24.92L205,807,58.8,435,31.19,364.76Z"/><path class="cls-3" d="M22.21,331.57S13.82,309.73,36.93,302c0,0-7.07-34.07,24.45-42.61,0,0-1.79-22.55,21-20.8,0,0-7.18-28.29,28.71-35.31,0,0,12.31-36.26,51.48-19.16,0,0,7.8-32.34,37.51-21,0,0,36.85-28.69,58.66,9.31,0,0,19.08-27.48,46.43-10.42,0,0,20.5-5.55,24.48,17.12,0,0,19.1-10.93,30.55,8.28,0,0,18.86-6.55,22.84,16.12,0,0,22.35,4.75,20.8,24.6,0,0-51.68,42.07-177.41,76.12S22.21,331.57,22.21,331.57Z"/><path class="cls-4" d="M33.26,328.57s-13.2-28.81,13.47-40.89c0,0,6.11-28,37-16,25.35,9.87,14.07,26,14.07,26s23.32-1.61,31.41,18.33C140.42,343.7,33.26,328.57,33.26,328.57Z"/><path class="cls-4" d="M225.54,263.19s-18.23,8.65-10,25.74c9.42,19.64,38.92-6.77,38.92-6.77s40.26-2.81,22.48-26.6c0,0,9.51-6.75.42-18.39s-25.68-13.09-32.66,5C244.67,242.16,222.6,238.41,225.54,263.19Z"/><path class="cls-5" d="M200.71,166.93s-12,5.71-6.62,17c6.22,13,25.7-4.46,25.7-4.46s26.58-1.86,14.84-17.57c0,0,6.28-4.45.28-12.14s-17-8.65-21.57,3.29C213.34,153,198.77,150.57,200.71,166.93Z"/><path class="cls-4" d="M157.84,241.31s-18.23,8.65-10,25.74c9.43,19.64,38.93-6.77,38.93-6.77s40.26-2.81,22.48-26.6c0,0,9.51-6.74.42-18.39S184,202.2,177,220.28C177,220.28,154.9,216.53,157.84,241.31Z"/><path class="cls-6" d="M106.71,193.86s-18.23,8.65-10,25.73c9.42,19.65,38.92-6.76,38.92-6.76s40.26-2.81,22.48-26.6c0,0,9.51-6.75.42-18.39s-25.68-13.1-32.66,5C125.84,172.83,103.77,169.08,106.71,193.86Z"/><path class="cls-6" d="M282.14,201.27s17,10.83,27.12-5.2c11.62-18.44-26.43-29.36-26.43-29.36s-10-27.91-34.49-4.88c0,0-10.77-4.46-15.79,9.43s2.58,28.71,21.6,25C254.15,196.26,262.72,216.94,282.14,201.27Z"/><path class="cls-4" d="M183.87,160.64s-25-13.46-24.72,23.36c0,0-12.7,7.58-6,23s33,7.8,39.92,1.06c0,0,19.77,2.74,21.17-16s-10.92-16.67-10.92-16.67S209,153.2,183.87,160.64Z"/><path class="cls-7" d="M60.06,287.83c-11.87-2.15-13.46,7.17-11.7,14.34,0,0-5.52.56-5.37,7.79s14.11,15.13,20.75-3c0,0,7.49,4.19,11.81-3.25S73,295,73,295a7.46,7.46,0,0,0-12.92-7.18Z"/><path class="cls-5" d="M50.75,255.68s-17.83-9.61-17.65,16.68c0,0-9.07,5.41-4.28,16.45s24,7.8,27.56-1.79c0,0,15.05,4.5,16.05-8.87s-7.79-11.9-7.79-11.9S68.67,250.37,50.75,255.68Z"/><path class="cls-5" d="M190.1,187.86s-14.43-7.77-14.28,13.5c0,0-7.34,4.38-3.46,13.31s19,4.51,23.06.61c0,0,11.42,1.59,12.23-9.23s-6.31-9.64-6.31-9.64S204.61,183.56,190.1,187.86Z"/><path class="cls-5" d="M301.44,226.34s-21.61-11.64-21.39,20.21c0,0-11,6.56-5.18,19.94s28.53,6.75,34.54.92c0,0,17.1,2.37,18.32-13.84s-9.45-14.43-9.45-14.43S323.16,219.9,301.44,226.34Z"/><path class="cls-6" d="M120.71,265.47S95.74,252,96,288.84c0,0-12.7,7.58-6,23s33,7.81,39.91,1.07c0,0,19.77,2.74,21.18-16s-10.92-16.67-10.92-16.67S145.81,258,120.71,265.47Z"/><path class="cls-6" d="M358.5,250.08s27.36-7.5,1.76-34c0,0,4-14.25-11.56-20.8s-29.24,17.11-29.62,26.78c0,0-16.2,11.66-4.28,26.18s19.41,4.53,19.41,4.53S345.47,272.79,358.5,250.08Z"/><path class="cls-4" d="M300.53,188.16s-17.34,16.83-2.8,32.07c13.09,13.71,49.06,2.37,40.15-20.59,0,0,19.75-8.65,8.57-29.07s-23.08,1.69-23.08,1.69S299.07,158.87,300.53,188.16Z"/><path class="cls-4" d="M97.47,229.49s-23.42-4.09-20.89,17.18c0,0-10.2,12.84,6.61,15.12,0,0,10.09,16,20.12-5.45,0,0,28.53,5.81,20.59-19.61C115.72,210.51,97.47,229.49,97.47,229.49Z"/><path class="cls-7" d="M250.51,258.56c-11.87-2.15-13.47,7.17-11.71,14.34,0,0-5.52.56-5.36,7.79s14.11,15.13,20.74-3c0,0,7.5,4.19,11.82-3.25s-2.57-8.73-2.57-8.73a7.46,7.46,0,0,0-12.92-7.18Z"/><path class="cls-7" d="M327,181.41s8.38-5.42,9.47,4.06c0,0,10.45,5.22,1,12.29,0,0,1.07,15.27-12.53,8.52,0,0-5.32,7.79-10.69-.66s2.5-14.2,5.55-13.79C319.76,191.83,315.59,180.2,327,181.41Z"/><path class="cls-6" d="M218.78,241.58s-23.42-4.09-20.9,17.17c0,0-10.19,12.84,6.62,15.13,0,0,10.08,16,20.11-5.45,0,0,28.54,5.81,20.6-19.62C237,222.6,218.78,241.58,218.78,241.58Z"/><path class="cls-7" d="M129.5,208.69c11.12,4.68,14.71-4.06,14.56-11.44,0,0,5.5.66,6.93-6.43S140.53,173,130.1,189.19c0,0-6.4-5.73-12.24.58s.6,9.08.6,9.08a7.47,7.47,0,0,0,11,9.84Z"/><path class="cls-5" d="M122.61,216c-16.49.87-15.69,13.79-11.09,22.8,0,0-7.18,2.49-4.71,12.07s23.58,15.75,26.73-10.48c0,0,11.31,3.23,14.74-8s-6.18-10.83-6.18-10.83A10.23,10.23,0,0,0,122.61,216Z"/><path class="cls-5" d="M259.64,222c-6.54-15.17-18.38-9.93-25.23-2.49,0,0-4.82-5.87-12.95-.22s-6.59,27.57,19.1,21.42c0,0,.9,11.73,12.66,11s8-9.55,8-9.55A10.23,10.23,0,0,0,259.64,222Z"/><path class="cls-5" d="M138.16,306.8c11.55,11.82,20.72,2.69,24.45-6.72,0,0,6.61,3.76,12.18-4.43s-3.74-28.1-25.52-13.16c0,0-5-10.63-15.77-5.76s-4.06,11.79-4.06,11.79a10.23,10.23,0,0,0,8.72,18.28Z"/><path class="cls-7" d="M181.37,252.14c11.11,4.68,14.7-4,14.55-11.44,0,0,5.51.66,6.94-6.43s-10.47-17.85-20.89-1.63c0,0-6.4-5.73-12.24.59s.6,9.08.6,9.08a7.47,7.47,0,0,0,11,9.83Z"/><path class="cls-5" d="M367,174.89c-14-8.72-20.76,2.33-22.14,12.35,0,0-7.31-2.06-10.76,7.22s10.33,26.39,27.92,6.68c0,0,7.43,9.12,16.68,1.83s1.13-12.41,1.13-12.41A10.23,10.23,0,0,0,367,174.89Z"/><rect class="cls-8" x="276.96" y="306.29" width="41.68" height="523.11" transform="translate(-138.1 97.61) rotate(-15.16)"/><polygon class="cls-8" points="324.53 827.27 295.41 824.72 134.79 336.7 175.02 325.8 324.53 827.27"/><polygon class="cls-8" points="266.92 824.52 245.58 825.95 81.16 349.74 112.96 341.13 266.92 824.52"/><path class="cls-8" d="M235.51,850.16a46.22,46.22,0,0,1-23.32-24.92L205,807,31.19,364.76l22.25-6L229.7,834.6S232.57,841.16,235.51,850.16Z"/><polygon class="cls-8" points="410.48 803.99 434.33 787.09 326.69 284.72 286.45 295.62 410.48 803.99"/><polygon class="cls-8" points="452.78 774.18 471.93 764.64 373.53 270.55 341.73 279.16 452.78 774.18"/><path class="cls-8" d="M412.9,261.37Q447.46,460,482,658.65l12.19,70L496,748.37a46.24,46.24,0,0,1-7.55,33.29c-2-9.26-2.84-16.37-2.84-16.37l-88-499.77Z"/><path class="cls-9" d="M412.9,261.37q6.09,35.1,12.2,70.18c-43.47-5.67-107.92-6.47-187.23,15C152.11,369.79,93.54,407,58.8,435L31.19,364.76Z"/><path class="cls-2" d="M425.6,244.59a17.19,17.19,0,0,1-12.7,16.78,1943.19,1943.19,0,0,1-188.31,61.44A1941.93,1941.93,0,0,1,31.45,364.69c-8.36,1.05-16.38-1.9-19.75-8.06a17.23,17.23,0,0,1,10.51-25.06c60.9-12,125.55-26.79,193.24-45.15,67.24-18.22,130.09-38,188.38-58.22a17.59,17.59,0,0,1,10.67.44,16.3,16.3,0,0,1,8.28,6.62A17.76,17.76,0,0,1,425.6,244.59Z"/><path class="cls-10" d="M425.6,244.59a17.19,17.19,0,0,1-12.7,16.78,1943.19,1943.19,0,0,1-188.31,61.44A1941.93,1941.93,0,0,1,31.45,364.69c-8.36,1.05-16.38-1.9-19.75-8.06,63.4-10.66,132.36-25.11,205.59-44.8,76.34-20.52,145.86-43.65,208.1-67.25Z"/><path class="cls-10" d="M494.19,728.65c1.07,6.21,2.16,12.41,3.23,18.62a46.25,46.25,0,0,1-24.38,49A524.59,524.59,0,0,1,257.3,854.49a46.11,46.11,0,0,1-45.11-29.25L205,807a431,431,0,0,0,289.18-78.33Z"/><ellipse class="cls-11" cx="285.61" cy="531.56" rx="115.47" ry="106.98" transform="translate(-129.04 93.16) rotate(-15.16)"/><path class="cls-8" d="M288.47,650.71a129.07,129.07,0,0,1-67.34-14.4c-29.25-15.34-50-40.73-58.29-71.5s-3.28-63.13,14.24-91.14C194.42,446,221.94,425.82,254.57,417c67.7-18.32,136.69,18.15,153.8,81.33h0c17.12,63.18-24,129.5-91.73,147.83A136.43,136.43,0,0,1,288.47,650.71Zm-4.62-214.85a112.4,112.4,0,0,0-23.15,3.76c-26.91,7.28-49.54,23.79-63.74,46.49-14,22.4-18.1,48.18-11.49,72.58s23.14,44.58,46.55,56.85c23.71,12.43,51.58,15.26,78.49,8,55.22-15,89-68.37,75.23-119.07h0C373.94,460.85,330.81,433.24,283.85,435.86Z"/><path class="cls-8" d="M232.41,536.84l-15-55.49L229.64,478q8.22-2.22,13.48,1.32t7.81,12.89q2.37,8.76-.78,14.92T239,515.5l-1,.27L242.91,534Zm-2.3-50.11,5.54,20.46.41-.11a6,6,0,0,0,4.43-4q1-3.1-.35-8.22c-.9-3.33-2.17-5.65-3.8-7A7,7,0,0,0,230.11,486.73Z"/><path class="cls-8" d="M290.61,492.46q3.78,14,1.65,21.94a13.51,13.51,0,0,1-10.16,10.16,13.36,13.36,0,0,1-14-3.77q-5.81-6-9.8-20.73t-2-22.86a13.36,13.36,0,0,1,10.17-10.29q8.36-2.27,14.12,3.83T290.61,492.46Zm-21.53,4.34q3.07,11.38,5.41,15.38t5.13,3.23c1.89-.51,2.84-2.31,2.83-5.39s-1-8.41-3.09-16-3.82-12.57-5.4-15.3-3.31-3.84-5.18-3.34-2.84,2.3-2.83,5.36S267,489.15,269.08,496.8Z"/><path class="cls-8" d="M305.35,517.08l-15-55.48,12.26-3.32q8.21-2.23,13.48,1.31t7.8,12.9q2.38,8.76-.77,14.92t-11.18,8.33l-1,.28,4.93,18.22ZM303,467l5.54,20.46.42-.12a6,6,0,0,0,4.43-4c.68-2.08.57-4.82-.35-8.22s-2.18-5.66-3.81-7A6.94,6.94,0,0,0,303,467Z"/><path class="cls-8" d="M252.83,577.58q.94,8.11-2,13.31a14.84,14.84,0,0,1-9.54,7,13.39,13.39,0,0,1-13.94-3.76q-5.84-6-9.76-20.45-4.06-15-1.86-23.23t10.9-10.54q6.12-1.67,10.76.85t7.94,9.34l-8.83,6q-1.59-4.37-3.42-6a4.23,4.23,0,0,0-4.22-1c-2.15.58-3.28,2.44-3.39,5.56s.88,8.53,3,16.21q3,11.13,5.43,14.95c1.6,2.55,3.45,3.54,5.52,3,1.55-.41,2.56-1.61,3-3.57a22.29,22.29,0,0,0-.14-8.28Z"/><path class="cls-8" d="M286.25,555.89q3.78,14,1.65,22A13.5,13.5,0,0,1,277.74,588a13.36,13.36,0,0,1-14-3.76q-5.81-6-9.8-20.73t-2-22.87a13.34,13.34,0,0,1,10.17-10.28q8.36-2.26,14.12,3.82T286.25,555.89Zm-21.53,4.35q3.07,11.38,5.41,15.37c1.55,2.67,3.26,3.74,5.13,3.24s2.84-2.31,2.83-5.39-1-8.42-3.09-16-3.82-12.57-5.4-15.29-3.31-3.85-5.18-3.34-2.84,2.3-2.83,5.35S262.64,552.58,264.72,560.24Z"/><path class="cls-8" d="M301,580.52,286,525,299,521.49q8.55-2.31,14,.44t7.53,10.44a17.16,17.16,0,0,1,.14,9.57,12.27,12.27,0,0,1-5.15,6.81L332.33,572l-10.91,3L305.2,551.33l-1,.27,7.07,26.13ZM302.68,546c.14,0,.34-.08.62-.13s.47-.09.61-.13a9.06,9.06,0,0,0,5.67-3.76,7.83,7.83,0,0,0,.64-6.43,7.45,7.45,0,0,0-3.72-5.1c-1.81-.9-4.12-1-6.93-.2l-1.08.29Z"/><path class="cls-8" d="M339,570.22l-15-55.49,10.49-2.84,14.33,24.51c.72,1.2,1.92,3.35,3.58,6.47s3.68,7,6.05,11.66l.7-.19q-4-9.76-6.85-17.33t-3.86-11.36L344,509.31l9.49-2.57,15,55.48L358.24,565l-13.66-22.83-1-1.64a165.21,165.21,0,0,1-9.07-16.87l-.63.17q4,9.66,6.75,17.35t4.21,12.94l3.66,13.51Z"/><path class="cls-7" d="M255.06,183.56s-7.61-6.86,1.49-10.47c0,0,2.39-11.75,11.93-4.26,0,0,14.85-5.14,11.79,10.14,0,0,9.14,3.2,2.2,10.78s-14.74,1.31-15.14-1.82C267.33,187.93,256.91,195.17,255.06,183.56Z"/><path class="cls-7" d="M361.61,182.24s5.31-3.43,6,2.57c0,0,6.62,3.31.62,7.79,0,0,.68,9.68-7.93,5.4,0,0-3.38,4.93-6.78-.42s1.59-9,3.52-8.73C357,188.85,354.4,181.48,361.61,182.24Z"/><path class="cls-7" d="M191.1,195.57s5.56-2.45,5.31,3.35c0,0,5.77,4.14-.6,7.48,0,0-.82,9.28-8.34,3.92,0,0-3.95,4.17-6.36-1.43s2.86-8.29,4.65-7.75C185.76,201.14,184.37,193.75,191.1,195.57Z"/><path class="cls-7" d="M51.41,266.35s5.44-3.32,5.19,2.47c0,0,5.77,4.15-.59,7.48,0,0-.83,9.28-8.35,3.92,0,0-3.95,4.17-6.36-1.42s2.86-8.29,4.65-7.75C46,271.05,43.86,264.14,51.41,266.35Z"/><path class="cls-6" d="M103.19,33s19.47-5.29,14.43-23.55c-5.8-21-39.51-.23-39.51-.23S50.77-2.27,51.28,31.37c0,0-10.55,5-3.67,18s23,17.43,33,.86C80.64,50.26,101.69,57.86,103.19,33Z"/><path class="cls-7" d="M71.87,41s-10.2,1-6.74-8.16c0,0-7.08-9.68,4.88-11.68,0,0,6.21-14.44,15.45-1.89,0,0,8.52-4.6,9.44,5.64s-9,11.77-11.54,10C83.36,34.92,81.7,47.49,71.87,41Z"/><path class="cls-4" d="M5,169.32s-10.41,8.3-1.28,16.33c10.49,9.23,24.69-11.15,24.69-11.15s26.43-9.19,9.46-19.17c0,0,5-5.58-3.62-10.39s-20-2.49-20.86,9C13.42,153.91-2.19,156,5,169.32Z"/><path class="cls-7" d="M15.51,157.34c-8.42,1-7.52,6.57-4.82,10.26,0,0-3.58,1.36-1.95,5.38s12.68,5.82,13.3-5.59c0,0,5.92.93,7.24-4s-3.57-4.41-3.57-4.41c.14-2.24-1.73-4.19-4.3-4.54A5.59,5.59,0,0,0,15.51,157.34Z"/><path class="cls-5" d="M225.25,128.43s16.37-.73,5.33-18.91c0,0,4-7.52-3.85-13.2s-18.67,5.9-20.12,11.3c0,0-10.61,4.5-5.76,14.21s10.36,5,10.36,5S215,139.56,225.25,128.43Z"/><path class="cls-7" d="M220.43,122.33s-3.51,5-6.27-.15c0,0-7.08-.6-3.33-6.73,0,0-4.05-8.39,5.16-7.64,0,0,1.25-5.61,6.19-2s1.79,8.58,0,9C222.16,114.81,227.14,120.44,220.43,122.33Z"/></g></g></g></svg>